<svg width="8" height="5" viewBox="0 0 8 5" fill="none" xmlns="http://www.w3.org/2000/svg">
<path d="M3.77727 4.375C3.728 4.37523 3.67918 4.36562 3.63367 4.34673C3.58816 4.32784 3.54689 4.30006 3.51227 4.265L0.512267 1.265C0.459772 1.2123 0.424137 1.14518 0.409892 1.07217C0.395646 0.999164 0.403435 0.92357 0.432267 0.855001C0.460228 0.786594 0.508033 0.728127 0.569522 0.687134C0.631011 0.646141 0.703368 0.6245 0.777267 0.625001H6.77727C6.85117 0.6245 6.92352 0.646141 6.98501 0.687134C7.0465 0.728127 7.09431 0.786594 7.12227 0.855001C7.1511 0.92357 7.15889 0.999164 7.14464 1.07217C7.1304 1.14518 7.09476 1.2123 7.04227 1.265L4.04227 4.265C4.00765 4.30006 3.96637 4.32784 3.92086 4.34673C3.87536 4.36562 3.82654 4.37523 3.77727 4.375V4.375ZM1.68227 1.375L3.77727 3.47L5.87227 1.375H1.68227Z" fill="#8A8EA6"/>
</svg>
