<svg width="20" height="20" viewBox="0 0 20 20" fill="none" xmlns="http://www.w3.org/2000/svg">
<path d="M11.4584 13.5415C11.3762 13.5419 11.2949 13.5259 11.219 13.4944C11.1432 13.4629 11.0744 13.4166 11.0167 13.3582L8.10002 10.4415C7.98298 10.3243 7.91724 10.1655 7.91724 9.99983C7.91724 9.83421 7.98298 9.67535 8.10002 9.55817L11.0167 6.6665C11.1342 6.59034 11.2738 6.55582 11.4132 6.56848C11.5526 6.58113 11.6838 6.64023 11.7856 6.7363C11.8874 6.83236 11.954 6.95984 11.9748 7.09828C11.9955 7.23673 11.9692 7.37813 11.9 7.49983L9.40002 9.99983L11.9 12.4998C12.0171 12.617 12.0828 12.7759 12.0828 12.9415C12.0828 13.1071 12.0171 13.266 11.9 13.3832C11.7794 13.4921 11.6207 13.549 11.4584 13.5415Z" fill="#44486D"/>
</svg>
