<svg width="8" height="5" viewBox="0 0 8 5" fill="none" xmlns="http://www.w3.org/2000/svg">
<path d="M6.77727 4.375H0.777267C0.703368 4.3755 0.631011 4.35386 0.569522 4.31287C0.508033 4.27187 0.460228 4.21341 0.432267 4.145C0.403435 4.07643 0.395646 4.00083 0.409892 3.92783C0.424137 3.85482 0.459772 3.7877 0.512267 3.735L3.51227 0.734998C3.58258 0.664773 3.67789 0.625328 3.77727 0.625328C3.87664 0.625328 3.97195 0.664773 4.04227 0.734998L7.04227 3.735C7.09476 3.7877 7.1304 3.85482 7.14464 3.92783C7.15889 4.00083 7.1511 4.07643 7.12227 4.145C7.09431 4.21341 7.0465 4.27187 6.98501 4.31287C6.92352 4.35386 6.85117 4.3755 6.77727 4.375ZM1.68227 3.625H5.87227L3.77727 1.53L1.68227 3.625Z" fill="#8A8EA6"/>
</svg>
