<svg width="20" height="20" viewBox="0 0 20 20" fill="none" xmlns="http://www.w3.org/2000/svg">
<path d="M10.8332 13.5416C10.7511 13.542 10.6697 13.5259 10.5939 13.4945C10.518 13.463 10.4493 13.4167 10.3916 13.3582C10.2745 13.241 10.2088 13.0822 10.2088 12.9166C10.2088 12.7509 10.2745 12.5921 10.3916 12.4749L12.8916 9.9749L10.3916 7.4749C10.3331 7.35384 10.3152 7.21716 10.3406 7.08514C10.366 6.95312 10.4333 6.8328 10.5324 6.74204C10.6316 6.65129 10.7574 6.59493 10.8912 6.58133C11.0249 6.56773 11.1595 6.59763 11.2749 6.66657L14.1916 9.58323C14.3086 9.70042 14.3743 9.85928 14.3743 10.0249C14.3743 10.1905 14.3086 10.3494 14.1916 10.4666L11.2749 13.3332C11.2193 13.3962 11.1515 13.4472 11.0756 13.483C10.9996 13.5188 10.9171 13.5387 10.8332 13.5416Z" fill="#44486D"/>
<path d="M6.24989 13.5416C6.08911 13.5293 5.93953 13.4545 5.83322 13.3332C5.73073 13.2187 5.67407 13.0703 5.67407 12.9166C5.67407 12.7628 5.73073 12.6145 5.83322 12.4999L8.33322 9.99991L5.83322 7.49991C5.77752 7.38329 5.75935 7.25226 5.78121 7.12487C5.80306 6.99749 5.86387 6.88001 5.95526 6.78862C6.04665 6.69723 6.16413 6.63642 6.29152 6.61456C6.4189 6.59271 6.54993 6.61088 6.66656 6.66658L9.58322 9.58325C9.70027 9.70044 9.76601 9.85929 9.76601 10.0249C9.76601 10.1905 9.70027 10.3494 9.58322 10.4666L6.66656 13.3332C6.56025 13.4545 6.41068 13.5293 6.24989 13.5416Z" fill="#44486D"/>
</svg>
