<svg width="24" height="24" viewBox="0 0 24 24" fill="none" xmlns="http://www.w3.org/2000/svg">
<path d="M6.26993 17.2301C6.13168 17.0882 6.05431 16.8979 6.05431 16.6997C6.05431 16.5016 6.13168 16.3113 6.26993 16.1694L16.1694 6.26992C16.3101 6.12927 16.5008 6.05025 16.6998 6.05025C16.8987 6.05025 17.0894 6.12927 17.2301 6.26992C17.3707 6.41058 17.4498 6.60134 17.4498 6.80025C17.4498 6.99917 17.3707 7.18993 17.2301 7.33058L7.33059 17.2301C7.18867 17.3683 6.99838 17.4457 6.80026 17.4457C6.60213 17.4457 6.41184 17.3683 6.26993 17.2301V17.2301Z" fill="#FC6161"/>
<path d="M16.1694 17.2301L6.26992 7.33058C6.12926 7.18993 6.05025 6.99917 6.05025 6.80025C6.05025 6.60134 6.12926 6.41058 6.26992 6.26992C6.41057 6.12927 6.60133 6.05025 6.80025 6.05025C6.99916 6.05025 7.18992 6.12927 7.33058 6.26992L17.2301 16.1694C17.3707 16.3101 17.4497 16.5008 17.4497 16.6997C17.4497 16.8987 17.3707 17.0894 17.2301 17.2301C17.0894 17.3707 16.8987 17.4497 16.6997 17.4497C16.5008 17.4497 16.3101 17.3707 16.1694 17.2301Z" fill="#FC6161"/>
</svg>
