<svg width="20" height="20" viewBox="0 0 20 20" fill="none" xmlns="http://www.w3.org/2000/svg">
<path d="M8.54159 13.5417C8.45767 13.5388 8.37521 13.5189 8.29926 13.4831C8.22331 13.4473 8.15548 13.3963 8.09993 13.3333C7.98289 13.2161 7.91714 13.0573 7.91714 12.8917C7.91714 12.726 7.98289 12.5672 8.09993 12.45L10.5999 9.95L8.09993 7.45C8.05049 7.32999 8.03964 7.19757 8.06889 7.07111C8.09814 6.94466 8.16603 6.83044 8.26314 6.74433C8.36025 6.65821 8.48176 6.60446 8.6108 6.59055C8.73985 6.57663 8.87002 6.60324 8.98326 6.66667L11.8999 9.58333C12.017 9.70052 12.0827 9.85938 12.0827 10.025C12.0827 10.1906 12.017 10.3495 11.8999 10.4667L8.98326 13.3333C8.92771 13.3963 8.85988 13.4473 8.78393 13.4831C8.70798 13.5189 8.62552 13.5388 8.54159 13.5417Z" fill="#44486D"/>
</svg>
