<svg width="20" height="20" viewBox="0 0 20 20" fill="none" xmlns="http://www.w3.org/2000/svg">
<path d="M9.16675 13.5415C9.08463 13.5419 9.00327 13.5259 8.92742 13.4944C8.85158 13.4629 8.78279 13.4166 8.72508 13.3582L5.83342 10.4415C5.71638 10.3243 5.65063 10.1655 5.65063 9.99983C5.65063 9.83421 5.71638 9.67535 5.83342 9.55817L8.72508 6.6665C8.84255 6.59034 8.98218 6.55582 9.1216 6.56848C9.26102 6.58113 9.39215 6.64023 9.49398 6.7363C9.59581 6.83236 9.66244 6.95984 9.68319 7.09828C9.70394 7.23673 9.67761 7.37813 9.60842 7.49983L7.10842 9.99983L9.60842 12.4998C9.72546 12.617 9.7912 12.7759 9.7912 12.9415C9.7912 13.1071 9.72546 13.266 9.60842 13.3832C9.48781 13.4921 9.32908 13.549 9.16675 13.5415V13.5415Z" fill="#44486D"/>
<path d="M13.7501 13.5415C13.5893 13.5292 13.4397 13.4544 13.3334 13.3332L10.4168 10.4165C10.2997 10.2993 10.234 10.1404 10.234 9.97482C10.234 9.8092 10.2997 9.65034 10.4168 9.53315L13.3334 6.66649C13.45 6.61079 13.5811 6.59261 13.7085 6.61447C13.8358 6.63633 13.9533 6.69714 14.0447 6.78853C14.1361 6.87992 14.1969 6.9974 14.2188 7.12478C14.2406 7.25217 14.2225 7.38319 14.1668 7.49982L11.6668 9.99982L14.1668 12.4998C14.2692 12.6144 14.3259 12.7628 14.3259 12.9165C14.3259 13.0702 14.2692 13.2186 14.1668 13.3332C14.0604 13.4544 13.9109 13.5292 13.7501 13.5415Z" fill="#44486D"/>
</svg>
